<svg width="336" height="335" viewBox="0 0 336 335" fill="none" xmlns="http://www.w3.org/2000/svg">
<g clip-path="url(#clip0_1_38)">
<path d="M25.1841 73.2753C25.9914 73.458 26.3909 74.1556 26.9235 74.6788C45.5079 93.1908 64.084 111.711 82.66 130.231C82.9513 130.522 83.2676 130.804 83.5339 131.12C84.6075 132.382 85.2899 132.598 85.9557 130.68C88.0697 124.609 90.3418 118.596 92.5389 112.55C98.8641 95.2089 105.181 77.868 111.498 60.5271C117.939 42.8623 124.381 25.1975 130.823 7.53267C131.747 5.00794 132.679 2.49152 134.052 -0.0166016C134.052 0.664411 134.052 1.33712 134.052 2.01813C134.052 28.5693 134.052 55.1205 134.052 81.6717C134.052 84.4455 134.077 84.4954 136.516 83.3659C152.911 75.7585 169.29 68.1262 185.677 60.5105C204.703 51.6656 223.728 42.8291 242.745 33.9759C248.588 31.2601 254.413 28.5195 260.248 25.8037C260.847 25.5297 261.396 25.0065 262.162 25.2888C262.029 26.0695 261.388 26.4349 260.913 26.9166C242.104 45.6943 223.287 64.4637 204.478 83.2413C202.813 84.9023 202.797 84.9522 205.044 85.7661C219.359 90.9816 233.674 96.1806 247.997 101.388C267.264 108.389 286.522 115.382 305.789 122.375C314.836 125.655 323.891 128.927 332.937 132.216C333.969 132.59 334.985 132.997 335.983 133.736H333.869C307.187 133.736 280.505 133.736 253.831 133.736C251.118 133.736 251.076 133.761 252.233 136.236C260.522 153.959 268.837 171.673 277.118 189.396C284.616 205.425 292.09 221.47 299.58 237.507C303.001 244.832 306.446 252.157 309.859 259.491C310.175 260.163 310.683 260.795 310.466 261.625C309.684 261.401 309.268 260.728 308.735 260.197C289.959 241.477 271.192 222.758 252.416 204.03C250.702 202.319 250.66 202.302 249.861 204.47C243.403 222.126 236.961 239.791 230.511 257.464C222.954 278.185 215.397 298.898 207.849 319.619C206.259 323.971 204.694 328.331 203.088 332.675C202.838 333.364 202.755 334.153 201.823 335V332.401C201.823 305.982 201.823 279.572 201.823 253.154C201.823 250.513 201.798 250.48 199.468 251.568C179.31 260.927 159.153 270.304 138.996 279.68C117.773 289.555 96.5671 299.446 75.3444 309.329C74.92 309.528 74.5039 309.836 73.8547 309.62C73.9213 308.798 74.6287 308.416 75.1114 307.926C93.8206 289.239 112.538 270.561 131.256 251.883C133.012 250.131 133.028 250.089 130.64 249.217C111.506 242.249 92.3725 235.298 73.2305 228.347C51.9413 220.615 30.6604 212.883 9.37119 205.151C6.25854 204.021 3.13756 202.9 -0.0250244 201.754C0.407751 200.998 1.02362 201.347 1.50633 201.347C28.3301 201.347 55.1538 201.347 81.9692 201.355C84.7157 201.355 84.7323 201.339 83.5672 198.831C71.6242 173.276 59.673 147.722 47.7217 122.159C40.3396 106.371 32.9574 90.5913 25.5919 74.8034C25.3672 74.3134 25.0343 73.8234 25.2008 73.2338L25.1675 73.267L25.1841 73.2753ZM186.235 167.429C186.185 157.297 177.929 149.158 167.767 149.225C157.722 149.291 149.574 157.472 149.574 167.504C149.574 177.636 157.78 185.808 167.95 185.808C178.104 185.808 186.285 177.586 186.235 167.429Z" fill="white"/>
</g>
<defs>
<clipPath id="clip0_1_38">
<rect width="336" height="335" fill="white"/>
</clipPath>
</defs>
</svg>
