<svg width="337" height="336" viewBox="0 0 337 336" fill="none" xmlns="http://www.w3.org/2000/svg">
<path d="M25.2092 73.2919C26.0164 73.4746 26.4159 74.1722 26.9486 74.6954C45.5329 93.2074 64.109 111.728 82.685 130.248C82.9763 130.538 83.2926 130.821 83.5589 131.136C84.6325 132.399 85.315 132.615 85.9808 130.696C88.0947 124.625 90.3668 118.612 92.5639 112.566C98.8891 95.2255 105.206 77.8846 111.523 60.5437C117.965 42.8789 124.406 25.2141 130.848 7.54927C131.772 5.02454 132.704 2.50812 134.077 0C134.077 0.681013 134.077 1.35372 134.077 2.03473C134.077 28.5859 134.077 55.1371 134.077 81.6883C134.077 84.4622 134.102 84.512 136.541 83.3825C152.936 75.7751 169.315 68.1428 185.702 60.5271C204.728 51.6822 223.753 42.8457 242.77 33.9925C248.613 31.2767 254.439 28.5361 260.273 25.8203C260.872 25.5463 261.421 25.0231 262.187 25.3054C262.054 26.0861 261.413 26.4515 260.938 26.9332C242.129 45.7109 223.312 64.4803 204.503 83.2579C202.838 84.9189 202.822 84.9688 205.069 85.7827C219.384 90.9982 233.699 96.1972 248.022 101.404C267.289 108.406 286.547 115.398 305.814 122.391C314.861 125.672 323.916 128.944 332.962 132.233C333.994 132.606 335.01 133.013 336.008 133.753H333.894C307.212 133.753 280.53 133.753 253.856 133.753C251.143 133.753 251.101 133.777 252.258 136.252C260.547 153.975 268.862 171.69 277.143 189.413C284.641 205.442 292.115 221.487 299.605 237.524C303.026 244.849 306.471 252.174 309.884 259.507C310.2 260.18 310.708 260.811 310.491 261.642C309.709 261.417 309.293 260.745 308.76 260.213C289.984 241.494 271.217 222.774 252.441 204.046C250.727 202.335 250.685 202.319 249.886 204.486C243.428 222.143 236.986 239.808 230.536 257.481C222.979 278.202 215.422 298.915 207.874 319.636C206.284 323.988 204.719 328.348 203.113 332.691C202.863 333.381 202.78 334.169 201.848 335.017V332.417C201.848 305.999 201.848 279.589 201.848 253.171C201.848 250.53 201.823 250.496 199.493 251.584C179.335 260.944 159.178 270.32 139.021 279.697C117.798 289.571 96.5921 299.463 75.3695 309.346C74.945 309.545 74.5289 309.852 73.8797 309.636C73.9463 308.814 74.6537 308.432 75.1364 307.942C93.8456 289.256 112.563 270.578 131.281 251.9C133.037 250.148 133.053 250.106 130.665 249.234C111.531 242.266 92.3975 235.315 73.2555 228.363C51.9663 220.631 30.6854 212.899 9.39621 205.167C6.28356 204.038 3.16259 202.917 0 201.771C0.432775 201.015 1.04865 201.364 1.53136 201.364C28.3551 201.364 55.1788 201.364 81.9942 201.372C84.7407 201.372 84.7574 201.355 83.5922 198.847C71.6493 173.293 59.698 147.738 47.7468 122.175C40.3646 106.387 32.9825 90.6079 25.617 74.82C25.3923 74.33 25.0593 73.84 25.2258 73.2504L25.1925 73.2836L25.2092 73.2919Z" fill="white"/>
</svg>
