<svg width="95" height="95" viewBox="0 0 95 95" fill="none" xmlns="http://www.w3.org/2000/svg">
<path d="M7.12106 20.5656C7.3491 20.6168 7.46195 20.8126 7.61241 20.9594C12.8621 26.1538 18.1094 31.3505 23.3568 36.5473C23.4391 36.6288 23.5284 36.7081 23.6036 36.7966C23.9069 37.1508 24.0997 37.2114 24.2878 36.6731C24.8849 34.9696 25.5267 33.2824 26.1474 31.5859C27.9341 26.7201 29.7185 21.8543 31.5029 16.9884C33.3225 12.0317 35.1422 7.07502 36.9618 2.11831C37.2228 1.40988 37.4861 0.703773 37.874 0C37.874 0.191091 37.874 0.379851 37.874 0.570942C37.874 8.02115 37.874 15.4714 37.874 22.9216C37.874 23.6999 37.881 23.7139 38.5699 23.397C43.2012 21.2623 47.8279 19.1207 52.457 16.9838C57.8313 14.5019 63.2056 12.0224 68.5775 9.53823C70.2279 8.77619 71.8736 8.00717 73.5216 7.24514C73.6908 7.16823 73.846 7.02142 74.0623 7.10065C74.0247 7.31971 73.8437 7.42225 73.7097 7.55741C68.3965 12.8264 63.081 18.093 57.7678 23.362C57.2976 23.8281 57.2929 23.8421 57.9277 24.0704C61.9713 25.5339 66.015 26.9927 70.061 28.4539C75.5034 30.4184 80.9436 32.3806 86.386 34.3427C88.9415 35.2632 91.4994 36.1814 94.0549 37.1042C94.3464 37.2091 94.6332 37.3233 94.9153 37.5307H94.3182C86.781 37.5307 79.2438 37.5307 71.709 37.5307C70.9426 37.5307 70.9308 37.5377 71.2576 38.2321C73.5992 43.2052 75.9478 48.1758 78.287 53.1489C80.4052 57.6465 82.5163 62.1488 84.6322 66.6487C85.5985 68.7041 86.5718 70.7595 87.5357 72.8172C87.625 73.006 87.7684 73.1831 87.7073 73.4161C87.4863 73.3532 87.3687 73.1645 87.2183 73.0153C81.9145 67.7626 76.6131 62.51 71.3093 57.255C70.825 56.7749 70.8133 56.7703 70.5876 57.3785C68.7632 62.3329 66.9436 67.2896 65.1216 72.2486C62.9869 78.0629 60.8523 83.8749 58.7199 89.6892C58.2709 90.9103 57.8289 92.1337 57.3752 93.3525C57.3047 93.5459 57.2811 93.7673 57.0178 94.005V93.2756C57.0178 85.8627 57.0178 78.4521 57.0178 71.0392C57.0178 70.2981 57.0108 70.2888 56.3525 70.5941C50.6585 73.2204 44.9645 75.8514 39.2704 78.4824C33.2755 81.2532 27.2852 84.0287 21.2903 86.8018C21.1704 86.8577 21.0528 86.944 20.8695 86.8834C20.8883 86.6527 21.0881 86.5455 21.2245 86.408C26.5094 81.1646 31.7967 75.9236 37.084 70.6826C37.5801 70.1909 37.5848 70.1792 36.9101 69.9346C31.5052 67.9794 26.1004 66.0289 20.6932 64.0783C14.6794 61.9088 8.66799 59.7392 2.65423 57.5696C1.77497 57.2527 0.893365 56.9381 0 56.6165C0.12225 56.4044 0.296221 56.5023 0.432577 56.5023C8.00972 56.5023 15.5869 56.5023 23.1617 56.5046C23.9375 56.5046 23.9422 56.5 23.613 55.7962C20.2394 48.6256 16.8634 41.455 13.4875 34.2822C11.4022 29.8521 9.31686 25.4244 7.23626 20.9944C7.17278 20.8569 7.07874 20.7194 7.12576 20.5539L7.11636 20.5632L7.12106 20.5656ZM52.6145 46.985C52.6004 44.142 50.2682 41.8582 47.3977 41.8768C44.5601 41.8955 42.2585 44.1909 42.2585 47.006C42.2585 49.8491 44.5766 52.1421 47.4494 52.1421C50.3176 52.1421 52.6286 49.8351 52.6145 46.985Z" fill="white"/>
</svg>
