<svg width="73" height="73" viewBox="0 0 73 73" fill="none" xmlns="http://www.w3.org/2000/svg">
<path d="M65.2724 7.15918H1V71.684H65.2724V7.15918Z" stroke="white" stroke-width="2" stroke-miterlimit="10"/>
<path d="M8.90234 1H71.6979V60.5092" stroke="white" stroke-width="2" stroke-miterlimit="10"/>
<path d="M32.7278 66.069C47.8731 66.069 60.1508 53.7431 60.1508 38.5383C60.1508 23.3335 47.8731 11.0076 32.7278 11.0076C17.5825 11.0076 5.30481 23.3335 5.30481 38.5383C5.30481 53.7431 17.5825 66.069 32.7278 66.069Z" stroke="white" stroke-width="2" stroke-miterlimit="10"/>
<path d="M32.7277 47.3316C37.565 47.3316 41.4864 43.3948 41.4864 38.5385C41.4864 33.6822 37.565 29.7454 32.7277 29.7454C27.8904 29.7454 23.969 33.6822 23.969 38.5385C23.969 43.3948 27.8904 47.3316 32.7277 47.3316Z" stroke="white" stroke-width="2" stroke-miterlimit="10"/>
<path d="M32.7276 42.1974C34.7406 42.1974 36.3725 40.5591 36.3725 38.5382C36.3725 36.5173 34.7406 34.879 32.7276 34.879C30.7146 34.879 29.0828 36.5173 29.0828 38.5382C29.0828 40.5591 30.7146 42.1974 32.7276 42.1974Z" fill="white"/>
<path d="M21.1659 33.3914C18.8931 32.4035 16.6135 31.4085 14.3406 30.4135C13.2179 29.9266 12.102 29.4326 10.9793 28.9598C10.685 28.8328 10.5344 28.7199 10.7123 28.353C12.6976 24.2107 15.4291 20.76 19.3244 18.3748C20.5635 17.6197 20.5635 17.6197 21.2755 18.9182C22.8569 21.8114 24.4383 24.7117 26.0128 27.605C26.1155 27.7955 26.2113 27.9931 26.2935 28.1483C26.3072 28.4235 26.1155 28.48 25.9786 28.5717C24.185 29.7502 22.7131 31.2392 21.83 33.2644C21.6451 33.6808 21.4124 33.4902 21.1728 33.3844L21.1659 33.3914Z" fill="white"/>
</svg>
