<svg width="341" height="342" viewBox="0 0 341 342" fill="none" xmlns="http://www.w3.org/2000/svg">
<path d="M27.119 77.2094C27.9623 77.3627 28.3456 78.1293 28.8822 78.5892C47.4337 97.0641 65.9852 115.616 84.5366 134.167C84.8433 134.474 85.1499 134.704 85.3799 135.087C86.4531 136.314 87.1431 136.543 87.833 134.627C89.9794 128.571 92.2025 122.515 94.4257 116.535C100.712 99.2105 107.074 81.8856 113.36 64.484C119.8 46.8524 126.239 29.1442 132.679 11.5126C133.598 8.98283 134.518 6.45309 135.898 4C135.898 4.68993 135.898 5.37986 135.898 6.06979C135.898 32.5938 135.898 59.1945 135.898 85.7185C135.898 88.4783 135.898 88.5549 138.351 87.405C154.68 79.8158 171.085 72.1499 187.413 64.5606C206.425 55.7449 225.359 46.8524 244.371 38.0366C250.197 35.3535 256.023 32.5938 261.849 29.8341C262.462 29.5275 262.999 29.0675 263.765 29.2975C263.612 30.0641 262.999 30.4474 262.539 30.9073C243.757 49.6888 224.976 68.4702 206.195 87.2517C204.508 88.9382 204.508 88.9382 206.731 89.7815C220.99 94.9943 235.325 100.207 249.584 105.42C268.825 112.396 288.066 119.449 307.231 126.424C316.277 129.721 325.323 133.017 334.292 136.237C335.288 136.62 336.362 137.003 337.358 137.77C336.668 137.77 335.978 137.77 335.212 137.77C308.611 137.77 281.934 137.77 255.333 137.77C252.65 137.77 252.573 137.77 253.723 140.3C262.002 158.008 270.281 175.716 278.561 193.424C286.073 209.446 293.509 225.468 300.945 241.566C304.395 248.926 307.768 256.208 311.217 263.567C311.524 264.257 312.061 264.871 311.831 265.714C311.064 265.484 310.604 264.794 310.068 264.257C291.363 245.553 272.581 226.848 253.876 208.066C252.19 206.38 252.113 206.303 251.347 208.526C244.907 226.158 238.468 243.866 232.029 261.498C224.516 282.196 216.927 302.97 209.414 323.668C207.804 328.038 206.271 332.407 204.661 336.7C204.431 337.39 204.355 338.157 203.358 339C203.358 337.927 203.358 337.16 203.358 336.394C203.358 309.946 203.358 283.576 203.358 257.128C203.358 254.522 203.358 254.445 200.982 255.518C180.897 264.871 160.736 274.223 140.651 283.652C119.493 293.541 98.3353 303.43 77.1007 313.319C76.7174 313.549 76.2575 313.856 75.6442 313.626C75.7208 312.783 76.4108 312.399 76.8707 311.939C95.5755 293.235 114.204 274.606 132.908 255.902C134.672 254.138 134.672 254.138 132.295 253.219C113.207 246.243 94.119 239.267 75.0309 232.367C53.7964 224.625 32.5618 216.882 11.3273 209.14C8.18423 207.99 5.11787 206.916 1.97485 205.767C2.43481 205 3.04808 205.383 3.50803 205.383C30.262 205.383 57.016 205.383 83.77 205.383C86.5298 205.383 86.5298 205.383 85.3799 202.854C73.4977 177.326 61.5389 151.722 49.5801 126.195C42.2208 110.403 34.8616 94.611 27.5023 78.8192C27.349 78.2059 27.0424 77.746 27.119 77.2094Z" stroke="white" stroke-width="2" stroke-miterlimit="10"/>
<path d="M169.628 156.322V186.525" stroke="white" stroke-width="2" stroke-miterlimit="10"/>
<path d="M154.603 171.423H184.73" stroke="white" stroke-width="2" stroke-miterlimit="10"/>
</svg>
